<?xml version="1.0" encoding="UTF-8"?>
<svg id="a" data-name="Layer 1" xmlns="http://www.w3.org/2000/svg" width="24" height="24" viewBox="0 0 24 24">
  <defs>
    <style>
      .b {
        fill: #4ea000;
      }

      .c {
        fill: #c90606;
      }
    </style>
  </defs>
  <path class="b" d="M14.34,9.94v9.38h4.69v4.69H4.97v-4.69h4.69v-6.94h-2.44v-4.69h4.69c.62,0,1.19.22,1.69.66.5.44.75,1.03.75,1.78v-.19Z"/>
  <path class="c" d="M11.91,6c.75,0,1.44-.31,2.06-.94s.94-1.31.94-2.06-.31-1.44-.94-2.06c-.63-.62-1.31-.94-2.06-.94s-1.44.31-2.06.94-.94,1.31-.94,2.06.31,1.44.94,2.06c.62.63,1.31.94,2.06.94Z"/>
</svg>