<?xml version="1.0" encoding="UTF-8"?>
<svg id="a" data-name="Layer 1" xmlns="http://www.w3.org/2000/svg" width="24" height="24" viewBox="0 0 24 24">
  <defs>
    <style>
      .b {
        fill: #4ea000;
      }

      .c {
        fill: #c90606;
      }
    </style>
  </defs>
  <polygon class="b" points="3 8.33 3 5.33 0 5.33 0 16 3 16 3 8.33"/>
  <path class="c" d="M3,3h7.33c.69,0,1.35.14,1.95.38-.78-1.98-2.7-3.38-4.95-3.38H0v5.33h3v-2.33Z"/>
  <polygon class="b" points="7 12.33 7 9.33 4 9.33 4 20 7 20 7 12.33"/>
  <path class="c" d="M7,7h7.33c.69,0,1.35.14,1.95.38-.78-1.98-2.7-3.38-4.95-3.38h-7.33v5.33h3v-2.33Z"/>
  <path class="b" d="M18.67,13.33h-10.67v10.67h10.67c2.95,0,5.33-2.39,5.33-5.33s-2.39-5.33-5.33-5.33Z"/>
  <path class="c" d="M20.63,13.72c0-.13.04-.25.04-.38,0-2.95-2.39-5.33-5.33-5.33h-7.33v5.33h10.67c.69,0,1.35.14,1.96.38Z"/>
</svg>