<?xml version="1.0" encoding="UTF-8"?>
<svg id="a" data-name="Layer 1" xmlns="http://www.w3.org/2000/svg" width="24" height="24" viewBox="0 0 24 24">
  <defs>
    <style>
      .b {
        fill: #4ea000;
      }

      .c {
        fill: #c90606;
      }
    </style>
  </defs>
  <polygon class="b" points="3 8.33 3 5.33 0 5.33 0 16 3 16 3 8.33"/>
  <path class="c" d="M3,3h7.33c.69,0,1.35.14,1.95.38-.78-1.98-2.7-3.38-4.95-3.38H0v5.33h3v-2.33Z"/>
  <polygon class="b" points="7 12.33 7 9.33 4 9.33 4 20 7 20 7 12.33"/>
  <path class="c" d="M7,7h7.33c.69,0,1.35.14,1.95.38-.78-1.98-2.7-3.38-4.95-3.38h-7.33v5.33h3v-2.33Z"/>
  <path class="c" d="M20.63,13.72c0-.13.04-.25.04-.38,0-2.95-2.39-5.33-5.33-5.33h-7.33v5.33h10.67c.69,0,1.35.14,1.96.38Z"/>
  <path class="b" d="M21.01,18.12c.14-.08.2-.23.2-.55,0-.3-.06-.44-.21-.52-.08-.03-.18-.05-.43-.05h-1.25v1.2h1.07c.37,0,.5-.02.61-.08ZM21.08,18.91c-.1-.05-.21-.06-.63-.06h-1.12v1.28h.96c.92,0,1.03-.07,1.03-.62,0-.37-.06-.52-.24-.61ZM16.24,17.04h-1.29v1.55h1.23c.28,0,.45-.04.56-.14.14-.12.18-.25.18-.65,0-.65-.11-.77-.67-.77ZM18.67,13.33h-10.67v10.67h10.67c2.95,0,5.33-2.39,5.33-5.33s-2.39-5.33-5.33-5.33ZM13.14,20.54c-.28.29-.64.36-1.73.36-.63,0-.91-.03-1.18-.14-.59-.25-.79-.69-.79-1.75,0-1.2.01-1.47.1-1.81.12-.46.42-.76.87-.89.21-.06.52-.08,1.09-.08.94,0,1.18.04,1.49.22s.43.51.44,1.2h-.89c-.03-.61-.14-.68-1.09-.68-.66,0-.89.08-1.02.33-.09.19-.11.41-.11,1.24s.02,1.12.1,1.3c.12.25.37.33,1.09.33.5,0,.76-.05.87-.17.12-.12.18-.36.18-.74,0-.02,0-.1-.01-.19h-1.15v-.65h2.02c.01.23.01.4.01.79,0,.78-.07,1.07-.32,1.32ZM17.76,19.87v1h-.89v-.83c.01-.5-.2-.72-.69-.7h-1.24v1.53h-.88v-4.59h2.26c1.11,0,1.49.34,1.49,1.37,0,.92-.16,1.16-.83,1.29v.03c.52.03.79.34.78.89ZM20.84,20.87h-2.39v-4.59h2.26c.49,0,.74.04.93.14.3.17.44.5.44,1.06,0,.63-.18.9-.67,1.01v.02c.6.1.79.36.79,1.09,0,.93-.35,1.26-1.36,1.26Z"/>
</svg>